<svg width="89" height="101" viewBox="0 0 89 101" fill="none" xmlns="http://www.w3.org/2000/svg">
<g clip-path="url(#clip0_4_2164)">
<path d="M87.801 75.0521C88.4983 73.8443 88.9315 72.4835 88.9315 71.2615V28.8427C88.9315 27.6207 88.4988 26.2602 87.8013 25.0524L44.5 50.0522L87.801 75.0521Z" fill="#00599C"/>
<path d="M48.3479 99.1354L85.0837 77.9262C86.142 77.3152 87.1038 76.2602 87.801 75.0521L44.5 50.0522L1.19904 75.0524C1.89629 76.2602 2.85839 77.3155 3.91633 77.9262L40.6522 99.1354C42.7684 100.357 46.2317 100.357 48.3479 99.1354Z" fill="#004482"/>
<path d="M87.8013 25.0521C87.1038 23.844 86.1417 22.789 85.0837 22.178L48.3478 0.968755C46.2317 -0.253257 42.7683 -0.253257 40.6522 0.968755L3.91631 22.178C1.79986 23.3997 0.0684814 26.399 0.0684814 28.8427V71.2615C0.0684814 72.4835 0.501471 73.8443 1.19902 75.0521L44.5 50.0522L87.8013 25.0521Z" fill="#659AD2"/>
<path d="M44.5 79.6733C28.1669 79.6733 14.879 66.3854 14.879 50.0523C14.879 33.7192 28.1669 20.4313 44.5 20.4313C55.0393 20.4313 64.8685 26.1028 70.1515 35.2325L57.3323 42.6505C54.6882 38.0808 49.7708 35.2418 44.5 35.2418C36.3333 35.2418 29.6895 41.8856 29.6895 50.0523C29.6895 58.2187 36.3333 64.8628 44.5 64.8628C49.7714 64.8628 54.6888 62.0238 57.3332 57.4532L70.1524 64.8709C64.8694 74.0015 55.0398 79.6733 44.5 79.6733Z" fill="white"/>
<path d="M74.1211 48.4065H70.8296V45.1154H67.5388V48.4065H64.2474V51.6976H67.5388V54.989H70.8296V51.6976H74.1211V48.4065Z" fill="white"/>
<path d="M86.4632 48.4065H83.1717V45.1154H79.8809V48.4065H76.5895V51.6976H79.8809V54.989H83.1717V51.6976H86.4632V48.4065Z" fill="white"/>
</g>
<defs>
<clipPath id="clip0_4_2164">
<rect width="88.8631" height="100" fill="white" transform="translate(0.0684814 0.0522461)"/>
</clipPath>
</defs>
</svg>
