<svg width="101" height="101" viewBox="0 0 101 101" fill="none" xmlns="http://www.w3.org/2000/svg">
<g clip-path="url(#clip0_5_262)">
<path d="M7.61538 44.3075C7.42062 44.3075 7.37194 44.2097 7.46931 44.063L8.49177 42.7429C8.58914 42.5962 8.83259 42.4984 9.02734 42.4984H26.4091C26.6038 42.4984 26.6525 42.6451 26.5552 42.7918L25.7275 44.063C25.6301 44.2097 25.3866 44.3564 25.2406 44.3564L7.61538 44.3075Z" fill="#00ACD7"/>
<path d="M0.263235 48.8065C0.0684814 48.8065 0.0197931 48.7088 0.11717 48.5621L1.13963 47.2419C1.237 47.0952 1.48044 46.9974 1.6752 46.9974H23.8771C24.0718 46.9974 24.1692 47.1441 24.1205 47.2908L23.731 48.4643C23.6823 48.6599 23.4876 48.7576 23.2928 48.7576L0.263235 48.8065Z" fill="#00ACD7"/>
<path d="M12.0455 53.3041C11.8508 53.3041 11.8021 53.1574 11.8995 53.0108L12.5811 51.7885C12.6785 51.6418 12.8732 51.4951 13.0679 51.4951H22.805C22.9998 51.4951 23.0972 51.6418 23.0972 51.8374L22.9998 53.0108C22.9998 53.2063 22.805 53.353 22.659 53.353L12.0455 53.3041Z" fill="#00ACD7"/>
<path d="M62.5845 43.428C59.5172 44.2103 57.4236 44.7971 54.4049 45.5794C53.6746 45.775 53.6259 45.8238 52.9929 45.0904C52.2626 44.2592 51.727 43.7214 50.7046 43.2324C47.6372 41.7167 44.6672 42.1567 41.892 43.9658C38.5812 46.1172 36.8771 49.2954 36.9258 53.2558C36.9744 57.1674 39.6523 60.3945 43.4987 60.9323C46.8095 61.3724 49.5847 60.1989 51.7757 57.7053C52.2139 57.1674 52.6034 56.5807 53.0903 55.8962C51.3375 55.8962 49.1465 55.8962 43.6934 55.8962C42.671 55.8962 42.4275 55.2605 42.7684 54.4293C43.4013 52.9136 44.5698 50.3711 45.2515 49.0998C45.3975 48.8064 45.7384 48.3175 46.4687 48.3175C48.9518 48.3175 58.1052 48.3175 64.1913 48.3175C64.0939 49.6376 64.0939 50.9578 63.8991 52.2779C63.3636 55.7984 62.049 59.0254 59.9067 61.8613C56.4011 66.5063 51.8244 69.3911 46.0305 70.1734C41.259 70.809 36.8284 69.88 32.9333 66.9464C29.3304 64.2083 27.2855 60.59 26.7499 56.0917C26.1169 50.7622 27.675 45.9705 30.8884 41.7656C34.3453 37.2184 38.922 34.3336 44.5211 33.3068C49.0979 32.4756 53.4798 33.0134 57.4236 35.7026C60.0041 37.414 61.8542 39.7609 63.0714 42.5968C63.3636 43.0368 63.1688 43.2813 62.5845 43.428Z" fill="#00ACD7"/>
<path d="M78.7003 70.4667C74.2697 70.3689 70.2286 69.0976 66.8204 66.1639C63.9478 63.6703 62.1463 60.4921 61.562 56.7272C60.6856 51.2021 62.195 46.3127 65.5058 41.961C69.06 37.2672 73.3446 34.8224 79.1385 33.7956C84.1048 32.9155 88.7788 33.4045 93.0147 36.2893C96.8611 38.9296 99.2468 42.4989 99.8798 47.1928C100.707 53.7936 98.8086 59.172 94.2806 63.7681C91.0672 67.044 87.1234 69.0976 82.5954 70.0266C81.2808 70.2711 79.9662 70.32 78.7003 70.4667ZM90.2882 50.7132C90.2395 50.0776 90.2395 49.5886 90.1421 49.0997C89.2657 44.2591 84.8351 41.521 80.2097 42.5967C75.6817 43.6235 72.7604 46.5083 71.6892 51.1044C70.8128 54.9181 72.663 58.7808 76.1686 60.3455C78.8464 61.5189 81.5243 61.3722 84.1048 60.0521C87.9511 58.0474 90.0447 54.9181 90.2882 50.7132Z" fill="#00ACD7"/>
</g>
<defs>
<clipPath id="clip0_5_262">
<rect width="100" height="100" fill="white" transform="translate(0.0684814 0.0522461)"/>
</clipPath>
</defs>
</svg>
