<svg width="101" height="101" viewBox="0 0 101 101" fill="none" xmlns="http://www.w3.org/2000/svg">
<g clip-path="url(#clip0_3_2118)">
<path d="M100.5 0.5H0.5V100.5H100.5V0.5Z" fill="#F7DF1E"/>
<path d="M67.6746 78.6254C69.6889 81.9143 72.3095 84.3318 76.9445 84.3318C80.8381 84.3318 83.3254 82.3857 83.3254 79.6969C83.3254 76.4746 80.7699 75.3334 76.4841 73.4588L74.1349 72.4508C67.354 69.5619 62.8492 65.9429 62.8492 58.2921C62.8492 51.2445 68.2191 45.8794 76.6111 45.8794C82.5857 45.8794 86.881 47.9588 89.9762 53.4032L82.6587 58.1016C81.0476 55.2127 79.3095 54.0746 76.6111 54.0746C73.8587 54.0746 72.1143 55.8207 72.1143 58.1016C72.1143 60.9207 73.8603 62.0619 77.8921 63.808L80.2413 64.8143C88.2254 68.2381 92.7333 71.7286 92.7333 79.5762C92.7333 88.0365 86.0873 92.6715 77.1619 92.6715C68.4349 92.6715 62.7968 88.5127 60.0381 83.0619L67.6746 78.6254ZM34.4794 79.4397C35.9556 82.0588 37.2984 84.273 40.527 84.273C43.6143 84.273 45.5619 83.0651 45.5619 78.3683V46.4159H54.9587V78.4953C54.9587 88.2254 49.254 92.654 40.927 92.654C33.4032 92.654 29.046 88.7603 26.8302 84.0707L34.4794 79.4397Z" fill="black"/>
</g>
<defs>
<clipPath id="clip0_3_2118">
<rect width="100" height="100" fill="white" transform="translate(0.5 0.5)"/>
</clipPath>
</defs>
</svg>
