<svg width="101" height="101" viewBox="0 0 101 101" fill="none" xmlns="http://www.w3.org/2000/svg">
<g clip-path="url(#clip0_5_263)">
<path d="M44.874 57.4317C44.874 57.4317 42.2959 59.0354 46.6674 59.4936C51.9356 60.1808 54.7379 60.0664 60.5665 58.9208C60.5665 58.9208 62.1358 59.9517 64.2655 60.7536C51.151 66.481 34.5617 60.4099 44.874 57.4317ZM43.1926 49.9862C43.1926 49.9862 40.3904 52.1625 44.7619 52.6207C50.4785 53.1935 54.9621 53.3079 62.6962 51.7043C62.6962 51.7043 63.7051 52.8498 65.3864 53.4226C49.5817 58.2336 31.8714 53.8808 43.1926 49.9862ZM74.1294 63.0446C74.1294 63.0446 76.0349 64.6483 71.9997 65.9082C64.4896 68.1992 40.5023 68.8864 33.7769 65.9082C31.4231 64.8773 35.9067 63.3882 37.3638 63.1591C38.821 62.8155 39.6056 62.8155 39.6056 62.8155C37.0276 60.9827 22.4559 66.5955 32.2076 68.1992C58.9971 72.6665 81.0791 66.2519 74.1294 63.0446ZM46.1069 42.1969C46.1069 42.1969 33.8891 45.1751 41.7355 46.206C45.0982 46.6642 51.7114 46.5497 57.8764 46.0915C62.9204 45.6333 67.9645 44.717 67.9645 44.717C67.9645 44.717 66.1711 45.5187 64.938 46.3207C52.4961 49.6425 28.6209 48.1534 35.4584 44.717C41.2871 41.8532 46.1069 42.1969 46.1069 42.1969ZM67.9646 54.6825C80.5186 48.0388 74.69 41.6241 70.6547 42.426C69.6459 42.6551 69.1975 42.8842 69.1975 42.8842C69.1975 42.8842 69.5338 42.1969 70.3184 41.9678C78.2768 39.1041 84.5538 50.5588 67.7404 55.0262C67.7404 55.0262 67.8524 54.9117 67.9646 54.6825ZM47.34 72.7811C59.4457 73.583 77.9405 72.3229 78.3888 66.481C78.3888 66.481 77.4921 68.772 68.4129 70.4901C58.1006 72.4375 45.3224 72.2084 37.8123 70.9483C37.8123 70.9483 39.3816 72.3229 47.34 72.7811Z" fill="#4E7896"/>
<path d="M60.3424 4.39551C60.3424 4.39551 67.292 11.612 53.7291 22.494C42.8563 31.3142 51.2631 36.3542 53.7291 42.0816C47.3399 36.2398 42.7443 31.0851 45.8827 26.274C50.4785 19.1721 63.1446 15.7357 60.3424 4.39551ZM56.7556 37.2707C60.0061 41.0508 55.8588 44.4872 55.8588 44.4872C55.8588 44.4872 64.1534 40.1344 60.3424 34.7506C56.8675 29.596 54.1774 27.076 68.7491 18.4849C68.7491 18.4849 45.7707 24.3268 56.7556 37.2707ZM48.4609 98.7827V87.5571C48.4609 84.6933 46.8916 82.7461 42.9684 82.7461C40.7266 82.7461 38.8211 83.3188 37.1397 84.006L37.7002 86.0679C38.9332 85.6097 40.5024 85.1515 42.1838 85.1515C44.3135 85.1515 45.3223 86.0679 45.3223 87.9007V89.3898H44.2014C38.8211 89.3898 36.3551 91.4517 36.3551 94.7735C36.3551 97.5227 38.0365 99.1263 41.0629 99.1263C42.9684 99.1263 44.4257 98.2099 45.7707 97.0645L45.9949 98.7827L48.4609 98.7827ZM45.3223 95.1172C44.2015 96.1481 42.9684 96.7209 41.8475 96.7209C40.3904 96.7209 39.4937 95.8045 39.4937 94.2009C39.4937 92.5971 40.3904 91.4517 43.9773 91.4517H45.3223L45.3223 95.1172ZM58.9973 98.7827H55.0741L50.3663 83.0897H53.7291L56.6434 92.7117L57.3159 95.5753C58.7731 91.4517 59.8941 87.2133 60.3424 83.0897H63.7051C62.8084 88.2443 61.2392 93.8571 58.9973 98.7827ZM77.1558 98.7827V87.5571C77.1558 84.6933 75.5866 82.7461 71.6634 82.7461C69.4216 82.7461 67.5161 83.3188 65.8347 84.006L66.2831 86.0679C67.6282 85.6097 69.1974 85.1515 70.8788 85.1515C73.0085 85.1515 74.0173 86.0679 74.0173 87.9007V89.3898H72.8965C67.5161 89.3898 65.0501 91.4517 65.0501 94.7735C65.0501 97.5227 66.6194 99.1263 69.6458 99.1263C71.6634 99.1263 73.1206 98.2099 74.4657 97.0645L74.6899 98.7827L77.1558 98.7827ZM74.0173 95.1172C72.8965 96.1481 71.6634 96.7209 70.5425 96.7209C69.0854 96.7209 68.1887 95.8045 68.1887 94.2009C68.1887 92.5971 69.0854 91.4517 72.6722 91.4517H74.0173L74.0173 95.1172ZM32.8803 101.417C31.9836 102.792 30.6385 103.823 28.9572 104.396L27.5 102.563C28.6209 101.875 29.7418 100.845 30.1901 99.9282C30.6385 99.1264 30.7507 97.9808 30.7507 95.3463V77.4769H34.1133V95.1172C34.1133 98.6682 33.7771 100.043 32.8803 101.417Z" fill="#F58219"/>
</g>
<defs>
<clipPath id="clip0_5_263">
<rect width="100" height="100" fill="white" transform="translate(0.5 0.5)"/>
</clipPath>
</defs>
</svg>
