<svg width="101" height="103" viewBox="0 0 101 103" fill="none" xmlns="http://www.w3.org/2000/svg">
<path d="M49.9046 0.948581C45.7812 0.96774 41.8434 1.31941 38.3785 1.93251C28.1716 3.73575 26.3184 7.51008 26.3184 14.4706V23.6633H50.4387V26.7276H26.3184H17.2662C10.2562 26.7276 4.11796 30.941 2.19801 38.9564C-0.0166227 48.1439 -0.114854 53.8771 2.19801 63.4703C3.91257 70.6112 8.00718 75.6992 15.0172 75.6992H23.3103V64.6791C23.3103 56.7178 30.1987 49.6953 38.3785 49.6953H62.4708C69.1772 49.6953 74.531 44.1734 74.5309 37.4383V14.4706C74.5309 7.93384 69.0165 3.02347 62.4708 1.93251C58.3273 1.24277 54.028 0.929421 49.9046 0.948581ZM36.8605 8.34211C39.3519 8.34211 41.3866 10.41 41.3866 12.9525C41.3866 15.4861 39.3519 17.5348 36.8605 17.5348C34.3601 17.5348 32.3344 15.4861 32.3344 12.9525C32.3344 10.41 34.3601 8.34211 36.8605 8.34211Z" fill="url(#paint0_linear_3_2141)"/>
<path d="M77.539 26.7277V37.4384C77.539 45.7424 70.4988 52.7315 62.4708 52.7315H38.3785C31.7793 52.7315 26.3184 58.3796 26.3184 64.9885V87.9562C26.3184 94.493 32.0025 98.3378 38.3785 100.213C46.0137 102.458 53.3354 102.864 62.4708 100.213C68.5432 98.455 74.5309 94.9167 74.5309 87.9562V78.7635H50.4387V75.6993H74.5309H86.5911C93.6012 75.6993 96.2134 70.8096 98.6513 63.4704C101.17 55.9148 101.062 48.6489 98.6513 38.9565C96.9189 31.978 93.6101 26.7277 86.5911 26.7277H77.539ZM63.9888 84.892C66.4892 84.892 68.5149 86.9407 68.5149 89.4743C68.5149 92.0169 66.4892 94.0847 63.9888 94.0847C61.4974 94.0847 59.4628 92.0169 59.4628 89.4743C59.4628 86.9407 61.4974 84.892 63.9888 84.892Z" fill="url(#paint1_linear_3_2141)"/>
<defs>
<linearGradient id="paint0_linear_3_2141" x1="0.5" y1="0.947754" x2="56.1189" y2="48.3428" gradientUnits="userSpaceOnUse">
<stop stop-color="#5A9FD4"/>
<stop offset="1" stop-color="#306998"/>
</linearGradient>
<linearGradient id="paint1_linear_3_2141" x1="63.4092" y1="88.7014" x2="43.4553" y2="60.74" gradientUnits="userSpaceOnUse">
<stop stop-color="#FFD43B"/>
<stop offset="1" stop-color="#FFE873"/>
</linearGradient>
</defs>
</svg>
