<svg width="101" height="101" viewBox="0 0 101 101" fill="none" xmlns="http://www.w3.org/2000/svg">
<g clip-path="url(#clip0_5_264)">
<path d="M42.9126 36.3731H55.1768C62.724 36.3731 62.724 43.9203 55.1768 43.9203H42.9126V36.3731ZM13.6674 71.2787H51.4032V60.9014H42.9126V53.3542H52.3466C62.724 53.3542 57.0636 71.2787 65.5542 71.2787H89.1391V53.3542H83.4787V55.241C83.4787 62.7882 74.9881 61.8448 74.0447 57.1278C73.1013 52.4108 69.3277 48.6372 68.3843 48.6372C82.5353 41.0901 74.0447 25.9957 62.724 25.9957H18.3843V36.3731H27.8183V60.9014H13.6674V71.2787Z" fill="#F4F4F4" stroke="#F4F4F4" stroke-linejoin="round"/>
<path d="M50.9315 90.6183C73.3355 90.6183 91.4976 72.4563 91.4976 50.0523C91.4976 27.6482 73.3355 9.48621 50.9315 9.48621C28.5275 9.48621 10.3655 27.6482 10.3655 50.0523C10.3655 72.4563 28.5275 90.6183 50.9315 90.6183Z" stroke="#F4F4F4" stroke-width="9"/>
<path d="M94.3278 52.8824L99.0447 50.0522L94.3278 47.222V52.8824Z" fill="#F4F4F4" stroke="#F4F4F4" stroke-width="3" stroke-linejoin="round"/>
<path d="M92.9417 61.2943L98.1202 59.4387L94.046 55.7427L92.9417 61.2943Z" fill="#F4F4F4" stroke="#F4F4F4" stroke-width="3" stroke-linejoin="round"/>
<path d="M89.9413 69.2741L95.3823 68.4644L92.1074 64.0446L89.9413 69.2741Z" fill="#F4F4F4" stroke="#F4F4F4" stroke-width="3" stroke-linejoin="round"/>
<path d="M85.4418 76.5151L90.9362 76.7825L88.5865 71.8087L85.4418 76.5151Z" fill="#F4F4F4" stroke="#F4F4F4" stroke-width="3" stroke-linejoin="round"/>
<path d="M79.616 82.7393L84.9527 84.0735L83.6185 78.7368L79.616 82.7393Z" fill="#F4F4F4" stroke="#F4F4F4" stroke-width="3" stroke-linejoin="round"/>
<path d="M72.688 87.7074L77.6618 90.057L77.3944 84.5626L72.688 87.7074Z" fill="#F4F4F4" stroke="#F4F4F4" stroke-width="3" stroke-linejoin="round"/>
<path d="M64.9238 91.2283L69.3437 94.5031L70.1533 89.0621L64.9238 91.2283Z" fill="#F4F4F4" stroke="#F4F4F4" stroke-width="3" stroke-linejoin="round"/>
<path d="M56.6219 93.1668L60.318 97.241L62.1735 92.0625L56.6219 93.1668Z" fill="#F4F4F4" stroke="#F4F4F4" stroke-width="3" stroke-linejoin="round"/>
<path d="M48.1013 93.4485L50.9315 98.1655L53.7617 93.4485H48.1013Z" fill="#F4F4F4" stroke="#F4F4F4" stroke-width="3" stroke-linejoin="round"/>
<path d="M39.6895 92.0626L41.5451 97.2411L45.2411 93.1669L39.6895 92.0626Z" fill="#F4F4F4" stroke="#F4F4F4" stroke-width="3" stroke-linejoin="round"/>
<path d="M31.7098 89.0621L32.5194 94.5031L36.9393 91.2283L31.7098 89.0621Z" fill="#F4F4F4" stroke="#F4F4F4" stroke-width="3" stroke-linejoin="round"/>
<path d="M24.4686 84.5625L24.2012 90.0569L29.175 87.7073L24.4686 84.5625Z" fill="#F4F4F4" stroke="#F4F4F4" stroke-width="3" stroke-linejoin="round"/>
<path d="M18.2445 78.7369L16.9104 84.0735L22.247 82.7394L18.2445 78.7369Z" fill="#F4F4F4" stroke="#F4F4F4" stroke-width="3" stroke-linejoin="round"/>
<path d="M13.2765 71.8087L10.9268 76.7825L16.4212 76.5151L13.2765 71.8087Z" fill="#F4F4F4" stroke="#F4F4F4" stroke-width="3" stroke-linejoin="round"/>
<path d="M9.75556 64.0445L6.4807 68.4644L11.9217 69.274L9.75556 64.0445Z" fill="#F4F4F4" stroke="#F4F4F4" stroke-width="3" stroke-linejoin="round"/>
<path d="M7.81698 55.7427L3.74278 59.4387L8.92126 61.2943L7.81698 55.7427Z" fill="#F4F4F4" stroke="#F4F4F4" stroke-width="3" stroke-linejoin="round"/>
<path d="M7.53528 47.2221L2.8183 50.0523L7.53528 52.8824L7.53528 47.2221Z" fill="#F4F4F4" stroke="#F4F4F4" stroke-width="3" stroke-linejoin="round"/>
<path d="M8.92124 38.8103L3.74275 40.6659L7.81696 44.3619L8.92124 38.8103Z" fill="#F4F4F4" stroke="#F4F4F4" stroke-width="3" stroke-linejoin="round"/>
<path d="M11.9217 30.8306L6.4807 31.6402L9.75555 36.0601L11.9217 30.8306Z" fill="#F4F4F4" stroke="#F4F4F4" stroke-width="3" stroke-linejoin="round"/>
<path d="M16.4212 23.5895L10.9268 23.3221L13.2765 28.2959L16.4212 23.5895Z" fill="#F4F4F4" stroke="#F4F4F4" stroke-width="3" stroke-linejoin="round"/>
<path d="M22.247 17.3653L16.9103 16.0311L18.2445 21.3678L22.247 17.3653Z" fill="#F4F4F4" stroke="#F4F4F4" stroke-width="3" stroke-linejoin="round"/>
<path d="M29.1751 12.3973L24.2012 10.0476L24.4686 15.542L29.1751 12.3973Z" fill="#F4F4F4" stroke="#F4F4F4" stroke-width="3" stroke-linejoin="round"/>
<path d="M36.9392 8.87635L32.5194 5.60149L31.7097 11.0425L36.9392 8.87635Z" fill="#F4F4F4" stroke="#F4F4F4" stroke-width="3" stroke-linejoin="round"/>
<path d="M45.2411 6.93783L41.5451 2.86363L39.6895 8.04211L45.2411 6.93783Z" fill="#F4F4F4" stroke="#F4F4F4" stroke-width="3" stroke-linejoin="round"/>
<path d="M53.7617 6.65613L50.9315 1.93915L48.1013 6.65613L53.7617 6.65613Z" fill="#F4F4F4" stroke="#F4F4F4" stroke-width="3" stroke-linejoin="round"/>
<path d="M62.1735 8.04203L60.3179 2.86354L56.6219 6.93774L62.1735 8.04203Z" fill="#F4F4F4" stroke="#F4F4F4" stroke-width="3" stroke-linejoin="round"/>
<path d="M70.1533 11.0425L69.3436 5.60149L64.9238 8.87634L70.1533 11.0425Z" fill="#F4F4F4" stroke="#F4F4F4" stroke-width="3" stroke-linejoin="round"/>
<path d="M77.3944 15.5421L77.6618 10.0477L72.6879 12.3973L77.3944 15.5421Z" fill="#F4F4F4" stroke="#F4F4F4" stroke-width="3" stroke-linejoin="round"/>
<path d="M83.6185 21.3677L84.9527 16.0311L79.616 17.3652L83.6185 21.3677Z" fill="#F4F4F4" stroke="#F4F4F4" stroke-width="3" stroke-linejoin="round"/>
<path d="M88.5865 28.2959L90.9362 23.3221L85.4418 23.5895L88.5865 28.2959Z" fill="#F4F4F4" stroke="#F4F4F4" stroke-width="3" stroke-linejoin="round"/>
<path d="M92.1074 36.0601L95.3823 31.6402L89.9413 30.8306L92.1074 36.0601Z" fill="#F4F4F4" stroke="#F4F4F4" stroke-width="3" stroke-linejoin="round"/>
<path d="M94.0461 44.3619L98.1203 40.6659L92.9418 38.8103L94.0461 44.3619Z" fill="#F4F4F4" stroke="#F4F4F4" stroke-width="3" stroke-linejoin="round"/>
<path d="M44.3278 10.4297L50.9315 17.0335L57.5353 10.4297H44.3278Z" fill="#F4F4F4" stroke="#F4F4F4" stroke-width="6" stroke-linejoin="round"/>
<path d="M86.5742 31.5277L82.3343 39.849L90.6556 44.0888L86.5742 31.5277Z" fill="#F4F4F4" stroke="#F4F4F4" stroke-width="6" stroke-linejoin="round"/>
<path d="M79.5637 78.2261L70.3395 76.7651L68.8785 85.9893L79.5637 78.2261Z" fill="#F4F4F4" stroke="#F4F4F4" stroke-width="6" stroke-linejoin="round"/>
<path d="M32.9845 85.9893L31.5235 76.7651L22.2994 78.2261L32.9845 85.9893Z" fill="#F4F4F4" stroke="#F4F4F4" stroke-width="6" stroke-linejoin="round"/>
<path d="M11.2075 44.0889L19.5287 39.849L15.2888 31.5277L11.2075 44.0889Z" fill="#F4F4F4" stroke="#F4F4F4" stroke-width="6" stroke-linejoin="round"/>
</g>
<defs>
<clipPath id="clip0_5_264">
<rect width="100" height="100" fill="white" transform="translate(0.931519 0.0522461)"/>
</clipPath>
</defs>
</svg>
